<?xml version="1.0" encoding="utf-8"?>
<!-- Generator: Adobe Illustrator 16.0.0, SVG Export Plug-In . SVG Version: 6.00 Build 0)  -->
<!DOCTYPE svg PUBLIC "-//W3C//DTD SVG 1.1//EN" "http://www.w3.org/Graphics/SVG/1.1/DTD/svg11.dtd">
<svg version="1.1" id="Layer_1" xmlns="http://www.w3.org/2000/svg" xmlns:xlink="http://www.w3.org/1999/xlink" x="0px" y="0px"
	 width="1500px" height="1500px" viewBox="0 0 1500 1500" enable-background="new 0 0 1500 1500" xml:space="preserve">
<g>
	<g>
		<path fill-rule="evenodd" clip-rule="evenodd" fill="#5D5D5D" d="M828.445,466.97c32.922,0,63.147,0,95.471,0
			c0,13.132-0.006,25.436,0,37.74c0.012,30.946-0.239,61.897,0.092,92.837c1.261,117.146,2.755,234.29,4.005,351.435
			c0.086,7.935-0.234,16.072-1.895,23.789c-4.521,21-21.479,34.414-42.608,34.446c-56.401,0.087-112.806,0.15-169.207,0.091
			c-35.37-0.044-44.525-9.177-44.564-44.196c-0.048-43.923,0.006-87.848,0.014-131.768c0.002-5.39,0.002-10.775,0.002-17.746
			c-12.122-0.644-22.812-1.211-34.681-1.843c0-24.044,0-47.578,0-72.046c58.674,0,116.872,0,176.315,0c0,22.819,0,45.497,0,69.989
			c-12.484,0-25.16,0-38.247,0c-0.963,4.41-2.088,7.197-2.1,9.987c-0.121,27.952,0.095,55.907-0.128,83.853
			c-0.082,10.396,3.703,15.247,14.816,15.73c42.065,1.848,42.054,2.124,42.05-40.34c-0.004-57.896,0.038-115.797-0.039-173.697
			c-0.023-20.701-4.686-26.337-25.102-26.521c-54.401-0.492-108.809-0.196-163.213-0.266c-13.645-0.018-19.948,6.586-19.935,20.282
			c0.096,103.319-0.087,206.642,0.128,309.959c0.041,19.311,7.506,27.235,26.543,29.417c8.881,1.016,17.939,0.647,26.917,0.673
			c77.863,0.228,155.733-0.188,233.579,0.979c21.269,0.314,42.83,3.752,63.618,8.532c54.838,12.606,75.003,42.694,66.485,98.051
			c-7.202,46.823-26.014,88.657-56.348,125.309c-3.434,4.153-5.527,10.425-5.913,15.875c-0.866,12.291-0.272,24.682-2.432,36.947
			c1.526-30.313,4.026-60.612,4.366-90.936c0.667-59.518-29.235-96.216-88.65-102.079c-43.959-4.338-88.636-2.291-132.975-1.712
			c-53.868,0.704-107.711,2.998-161.574,4.242c-9.425,0.22-19.059-0.448-28.304-2.231c-31.941-6.159-46.859-24.712-46.863-57.326
			c-0.016-144.75-0.014-289.494,0.022-434.244c0.008-34.359,11.451-45.962,45.256-45.969c82.857-0.028,165.715-0.272,248.567,0.304
			c13.216,0.094,17.129-3.696,16.823-16.875C827.892,541.319,828.445,504.961,828.445,466.97z"/>
		<path fill-rule="evenodd" clip-rule="evenodd" fill="#5D5D5D" d="M476.452,967.827c-0.012-96.319,0.025-192.642-0.094-288.963
			c-0.024-19.722-7.886-29.297-25.768-29.417c-55.39-0.377-110.789-0.219-166.181,0.146c-17.438,0.114-29.776,8.293-37.554,24.691
			c-15.376,32.404-29.795,65.524-48.318,96.101c-21.675,35.782-11.523,73.314-14.217,111.11c9.281,0.579,16.625,1.038,26.654,1.666
			c0,28.077,0.193,54.904-0.254,81.72c-0.052,3.244-2.774,7.934-5.596,9.416c-22.5,11.818-44.246-1.274-44.315-26.595
			c-0.162-58.889-0.21-117.782-0.004-176.669c0.122-34.497-4.94-38.376,34.625-37.419c9.326,0.228,11.993-3.831,11.797-12.586
			c-0.442-19.95-0.428-39.927-0.028-59.881c0.182-9.008-3.041-12.178-12.205-12.048c-30.938,0.436-61.881,0.05-92.824,0.146
			c-18.034,0.058-28.021,6.483-33.536,23.656c-2.99,9.31-4.391,19.502-4.474,29.314c-0.452,51.4-0.272,102.808-0.272,154.21
			c0,58.392-0.116,116.78,0.144,175.176c0.108,24.486,6.735,30.774,31.333,31.314c8.979,0.195,17.964,0.075,26.949,0.071
			c45.414-0.007,90.833,0.244,136.244-0.147c24.806-0.216,41.821-13.461,41.925-33.553c0.358-69.362,0.244-138.735-0.661-208.091
			c-0.108-8.201-6.231-16.322-9.564-24.479c0.182-8.597,4.528-18.064,9.268-27.336c19.417-37.958,19.455-37.818,62.851-35.51
			c7.402,0.394,17.45,8.737,17.77,13.401c1.443,21.203,0.631,42.56,0.631,65.865c-13.341,0-25.18-0.025-37.021,0.006
			c-25.098,0.064-26.982,1.854-27.245,27.397c-0.184,17.966,0.232,35.935-0.062,53.896c-0.585,35.492-0.574,70.78,25.362,101.548
			c-10.771,0.647-19.017,1.143-28.38,1.703c0,26.075,0,51.547,0,79.665c21.609-17.534,45.378-15.129,68.658-15.216
			c21.461-0.084,42.92,0.087,64.379-0.057c21.809-0.151,29.6-7.846,29.882-29.875C476.625,1010.745,476.454,989.282,476.452,967.827
			z M390.107,970.708c-3.277,0.513-2.808,4.134-6.261,3.922c-10.338-0.638-12.901-17.63-14.732-27.167
			c-3.705-19.304-4.095-39.265-5.472-58.982c-0.679-9.698,6.455-9.384,13.201-9.319c6.615,0.061,13.363-0.711,13.314,9.245
			C390.014,916.145,390.107,942.971,390.107,970.708z"/>
		<path fill="#5D5D5D" d="M139.464,529.242c-35.486-2.425-37.884-5.282-44.201-8.592c-2.6-1.362-22.466-14.174-27.888-27.137
			c0,51.968,0,99.489,0,147.773c31.369,0,62.057,0,93.422,0c0.482-3.012,1.073-5.354,1.199-7.724
			c1.389-26.176,1.371-26.176,27.289-26.176c54.403,0.002,108.808,0.072,163.211-0.028c28.349-0.052,28.326-0.19,30.106,28.405
			c0.116,1.855,1.042,3.662,1.543,5.322c30.836,0,61.062,0,92.893,0c0-24.345,0.274-47.698-0.084-71.04
			c-0.291-19.011-11.502-32.902-30.458-37.215c-8.663-1.972-17.8-2.536-26.725-2.555c-82.191-0.209-164.378-0.155-246.563-0.224
			c-1.787-0.012-3.517-0.032-5.224-0.055c-3.085-0.122-23.709-0.514-26.793-0.755H139.464z"/>
		<g>
			<path fill="#5D5D5D" d="M1245.569,711.309c11.854-0.144,23.707-0.248,35.562-0.322c-9.721,0.008-19.434,0.018-29.144,0.038
				C1249.637,711.03,1247.512,711.123,1245.569,711.309z"/>
			<path fill="#5D5D5D" d="M1370.864,711.203c1.709,0.021,3.234-0.052,4.626-0.21c-10.001-0.002-19.976-0.004-29.892-0.008
				C1354.021,711.039,1362.442,711.099,1370.864,711.203z"/>
			<path fill="#5D5D5D" d="M1386.227,695.845c-0.098-3.594-0.143-7.19-0.21-10.785c0,5.262,0,10.544,0,15.842
				C1386.203,699.405,1386.278,697.74,1386.227,695.845z"/>
			<path fill="#5D5D5D" d="M1385.94,771.602c-0.041-22.746-8.063-30.813-30.708-30.992c-38.936-0.309-77.877,0.015-116.811-0.359
				c-2.723-0.026-6.512-0.557-9.483-1.448c0.109-0.104,0.169-0.165,0.169-0.165c-1.568-19.146,2.039-25.952,16.462-27.328
				c1.942-0.186,4.067-0.278,6.418-0.284c9.71-0.02,19.423-0.03,29.144-0.038c21.387-0.017,42.846-0.011,64.468-0.002
				c9.916,0.004,19.891,0.006,29.892,0.008c3.516,0,6.997,0.002,10.526,0.002c0-3.378,0-6.734,0-10.093c0-5.298,0-10.58,0-15.842
				c0-18.584,0-37.003,0-55.51c0-11.859,0-23.753,0-35.769c-1.745,0.688-3.07,0.646-4.521,2.139
				c-9.917,11.334-21.1,19.408-33.279,24.899c-9.371,4.224-19.333,6.919-29.792,8.32c-8.313,1.114-16.929,1.437-25.804,1.081
				c-17.448-0.701-34.918-1.451-52.307-2.978c-8.37-0.735-16.256-1.389-23.71-0.873c-12.878,0.889-24.464,5.295-35.008,18.842
				c-16.956-21.579-39.494-19.982-62.391-17.969c-17.392,1.527-34.858,2.276-52.308,2.978c-34.559,1.387-65.271-7.317-88.875-34.3
				c-1.452-1.493-2.776-1.452-4.521-2.139c0,39.441,0,77.651,0,117.213c45.402,0,89.716-0.062,134.031,0.03
				c19.792,0.041,24.66,5.888,22.877,27.612c-2.63,0.521-5.46,1.554-8.291,1.569c-35.943,0.176-71.885,0.208-107.826,0.271
				c-30.978,0.056-40.804,9.513-40.82,39.745c-0.043,75.378-0.01,150.758,0.063,226.138c0.025,27.055,6.632,33.717,33.42,33.722
				c113.819,0.027,227.638,0.031,341.457-0.024c31.168-0.016,37.171-5.355,37.336-36.332
				C1386.158,926.353,1386.072,848.974,1385.94,771.602z M1289.101,928.126c-0.058,20.013-3.851,23.798-23.517,23.838
				c-28.945,0.063-57.892,0.016-86.839,0.016c0-0.02,0-0.04,0-0.063c-29.444,0-58.896-0.393-88.329,0.168
				c-14.5,0.275-21.407-5.663-21.386-20.112c0.048-28.442,0.099-56.892-0.15-85.339c-0.143-16.543,11.101-18.057,23.279-18.095
				c42.419-0.135,84.841-0.062,127.263-0.052c16.467,0.007,32.942-0.188,49.405,0.134c17.369,0.336,20.006,3.077,20.114,20.156
				C1289.109,875.228,1289.175,901.679,1289.101,928.126z"/>
		</g>
	</g>
	<g>
		<path fill="#5D5D5D" d="M1419.672,558.034l-61.731,6.821l-52.183-31.718l-10.573,36.152c0,0,15.348,23.192,55.251,30.355
			c39.906,7.162,63.781-6.822,63.781-6.822L1419.672,558.034z"/>
		<path fill="#5D5D5D" d="M1441.856,576.376c0.054-8.221-0.778-16.707-2.403-24.823c-0.709-3.545-1.472-6.41-2.225-8.758
			l40.425-4.543l-101.979-59.004l-117.666,13.642l101.296,58.664l69.389-7.798c1.875,4.929,6.271,17.875,6.375,31.038
			c-5.757,0.495-10.279,5.32-10.279,11.206c0,4.255,2.361,7.956,5.846,9.87c-7.299,19.094-18.806,41.29-18.806,41.29l26.262,1.706
			c0,0-2.047-27.968,1.363-41.61c0.047-0.186,0.077-0.385,0.121-0.572c4.484-1.483,7.724-5.701,7.724-10.682
			C1447.298,581.915,1445.113,578.349,1441.856,576.376z"/>
	</g>
	<path fill="#5D5D5D" d="M189.112,542.687c0,0,111.28-74.693,347.762-64.462c236.48,10.232,308.104,53.207,308.104,53.207
		s-80.832-97.203-239.426-107.435c-158.594-10.232-303.888,38.761-358.117,69.517C193.205,524.269,189.112,542.687,189.112,542.687z
		"/>
	<path fill="#5D5D5D" d="M153.301,533.478c0,0,134.038-106.412,354.024-180.082c209.248-70.073,331.394-51.16,331.394-51.16
		s-90.944-48.089-219.866-27.625c-128.922,20.463-232.026,74.62-296.725,114.597C196.274,466.97,153.301,533.478,153.301,533.478z"
		/>
	<path fill="#5D5D5D" d="M153.301,514.037c0,0,87.995-114.598,267.053-215.894s288.54-122.783,288.54-122.783
		s-139.154-11.255-241.473,46.043C365.102,278.702,247.435,370.79,202.414,428.089C157.394,485.387,153.301,514.037,153.301,514.037
		z"/>
	<path fill="#5D5D5D" d="M508.348,122.154c0,0-185.197,137.107-235.333,194.407c-50.137,57.298-134.039,193.383-134.039,193.383
		S165.579,357.488,284.27,245.96C390.282,146.347,475.606,124.201,508.348,122.154z"/>
</g>
<g>
	<polygon fill="#5D5D5D" points="840.993,1293.666 859.604,1293.666 850.437,1272.466 	"/>
	<path fill="#5D5D5D" d="M710.305,1256.534h-1.861v26.6c1,0.06,1.755,0.092,2.271,0.092c3.69,0,6.536-1.1,8.533-3.294
		c1.996-2.189,2.996-5.587,2.996-10.188c0-4.568-1-7.914-2.996-10.032C717.25,1257.594,714.27,1256.534,710.305,1256.534z"/>
	<path fill="#5D5D5D" d="M908.416,1237.434H88.409c-13.562,0-24.557,10.995-24.557,24.557v46.044
		c0,13.562,10.996,24.557,24.557,24.557h820.007c13.562,0,24.557-10.995,24.557-24.557v-46.044
		C932.973,1248.429,921.978,1237.434,908.416,1237.434z M146.127,1310.437c-4.009,3.708-9.101,5.563-15.274,5.563
		c-1.936,0-3.767-0.2-5.492-0.592c-1.727-0.392-3.889-1.135-6.493-2.223c-1.451-0.607-2.647-0.911-3.584-0.911
		c-0.788,0-1.619,0.304-2.496,0.911c-0.88,0.604-1.589,1.527-2.135,2.767h-1.679v-23.241h1.679
		c1.331,6.538,3.897,11.521,7.694,14.96c3.796,3.434,7.891,5.151,12.278,5.151c3.389,0,6.091-0.924,8.104-2.77
		c2.013-1.847,3.017-3.998,3.017-6.447c0-1.451-0.385-2.858-1.157-4.221c-0.771-1.363-1.944-2.654-3.517-3.882
		c-1.575-1.226-4.358-2.82-8.353-4.788c-5.597-2.753-9.623-5.099-12.074-7.038c-2.45-1.934-4.334-4.096-5.65-6.49
		c-1.316-2.39-1.977-5.02-1.977-7.897c0-4.9,1.801-9.078,5.402-12.526c3.602-3.453,8.142-5.177,13.62-5.177
		c1.996,0,3.932,0.244,5.809,0.729c1.422,0.359,3.156,1.034,5.198,2.018s3.473,1.476,4.288,1.476c0.788,0,1.409-0.24,1.863-0.728
		c0.454-0.483,0.877-1.646,1.271-3.494h1.36l0.5,20.517h-1.86c-0.88-5.144-3.036-9.28-6.469-12.414
		c-3.436-3.134-7.15-4.696-11.144-4.696c-3.087,0-5.532,0.823-7.332,2.474c-1.801,1.646-2.7,3.546-2.7,5.696
		c0,1.362,0.318,2.573,0.953,3.633c0.878,1.418,2.284,2.829,4.221,4.221c1.423,0.999,4.707,2.77,9.851,5.312
		c7.202,3.536,12.059,6.883,14.571,10.028c2.482,3.149,3.723,6.751,3.723,10.803C152.142,1302.306,150.137,1306.73,146.127,1310.437
		z M315.74,1254.672h-1.997c-1.816,0-3.253,0.32-4.313,0.955c-0.788,0.425-1.407,1.148-1.86,2.179c-0.333,0.728-0.5,2.634-0.5,5.72
		v40.487c0,3.15,0.166,5.117,0.5,5.904c0.332,0.787,1.014,1.475,2.042,2.065c1.029,0.588,2.406,0.884,4.13,0.884h1.997v1.679
		h-32.136v-1.679h1.996c1.816,0,3.254-0.316,4.313-0.951c0.787-0.425,1.407-1.151,1.86-2.182c0.334-0.725,0.5-2.631,0.5-5.721
		v-19.064H270.53v19.064c0,3.15,0.174,5.117,0.521,5.904c0.347,0.787,1.029,1.475,2.042,2.065c1.015,0.588,2.384,0.884,4.108,0.884
		h2.042v1.679h-32.182v-1.679h2.042c1.784,0,3.223-0.316,4.312-0.951c0.786-0.425,1.391-1.151,1.815-2.182
		c0.333-0.725,0.5-2.631,0.5-5.721v-40.487c0-3.149-0.166-5.116-0.5-5.902c-0.334-0.784-1.006-1.477-2.019-2.063
		c-1.015-0.591-2.384-0.888-4.108-0.888h-2.042v-1.679h32.182v1.679h-2.042c-1.786,0-3.223,0.32-4.313,0.955
		c-0.788,0.425-1.407,1.148-1.86,2.179c-0.334,0.728-0.5,2.634-0.5,5.72v17.43h21.743v-17.43c0-3.149-0.166-5.116-0.5-5.902
		c-0.332-0.784-1.013-1.477-2.042-2.063c-1.029-0.591-2.406-0.888-4.13-0.888h-1.996v-1.679h32.136V1254.672z M440.712,1254.672
		h-2.042c-1.787,0-3.223,0.32-4.313,0.955c-0.788,0.425-1.407,1.148-1.862,2.179c-0.332,0.728-0.498,2.634-0.498,5.72v40.487
		c0,3.15,0.174,5.117,0.521,5.904c0.348,0.787,1.027,1.475,2.042,2.065c1.013,0.588,2.382,0.884,4.109,0.884h2.042v1.679h-32.185
		v-1.679h2.042c1.787,0,3.223-0.316,4.313-0.951c0.788-0.425,1.394-1.151,1.816-2.182c0.333-0.725,0.5-2.631,0.5-5.721v-40.487
		c0-3.149-0.167-5.116-0.5-5.902c-0.333-0.784-1.007-1.477-2.02-2.063c-1.013-0.591-2.382-0.888-4.109-0.888h-2.042v-1.679h32.185
		V1254.672z M588.467,1314.545h-54.653v-1.679h2.043c1.786,0,3.223-0.316,4.312-0.951c0.787-0.425,1.391-1.151,1.816-2.182
		c0.332-0.725,0.5-2.631,0.5-5.721v-40.487c0-3.149-0.168-5.116-0.5-5.902c-0.333-0.784-1.007-1.477-2.02-2.063
		c-1.015-0.591-2.384-0.888-4.108-0.888h-2.043v-1.679h32.82v1.679h-2.68c-1.785,0-3.221,0.32-4.31,0.955
		c-0.788,0.425-1.409,1.148-1.863,2.179c-0.333,0.728-0.499,2.634-0.499,5.72v39.218c0,3.148,0.181,5.151,0.545,6.015
		c0.364,0.862,1.073,1.506,2.134,1.931c0.756,0.271,2.586,0.407,5.492,0.407h5.13c3.267,0,5.991-0.575,8.169-1.723
		c2.18-1.151,4.063-2.966,5.651-5.447c1.589-2.482,3.093-6.144,4.517-10.987h1.862L588.467,1314.545z M733.592,1279.776
		c-2.482,2.842-5.902,4.779-10.259,5.808c-2.937,0.728-7.898,1.091-14.889,1.091v17.066c0,3.329,0.204,5.424,0.613,6.287
		c0.408,0.864,1.135,1.552,2.178,2.067c1.044,0.515,2.958,0.771,5.742,0.771v1.679h-31.275v-1.679c2.844,0,4.775-0.264,5.788-0.796
		c1.013-0.526,1.725-1.214,2.134-2.062c0.408-0.848,0.611-2.938,0.611-6.268v-39.944c0-3.329-0.204-5.424-0.611-6.287
		c-0.41-0.864-1.129-1.551-2.156-2.066c-1.029-0.511-2.951-0.771-5.766-0.771v-1.679h26.827c8.836,0,15.176,1.574,19.021,4.721
		c3.843,3.149,5.763,7.083,5.763,11.803C737.313,1273.509,736.072,1276.932,733.592,1279.776z M888.565,1314.545h-29.778v-1.679
		h1.227c2.392,0,4.069-0.331,5.038-0.999c0.665-0.483,0.999-1.179,0.999-2.086c0-0.548-0.092-1.107-0.273-1.68
		c-0.061-0.275-0.513-1.41-1.36-3.405l-3.269-7.673h-21.743l-2.587,5.995c-0.847,1.994-1.27,3.645-1.27,4.943
		c0,1.726,0.694,2.998,2.087,3.813c0.815,0.488,2.828,0.851,6.036,1.091v1.679h-20.473v-1.679c2.211-0.331,4.024-1.246,5.447-2.746
		c1.423-1.498,3.178-4.592,5.268-9.283l22.013-49.114h0.864l22.196,50.476c2.119,4.785,3.858,7.794,5.22,9.033
		c1.029,0.938,2.482,1.482,4.358,1.635V1314.545z"/>
</g>
<g>
	<path fill="#5D5D5D" d="M1048.052,1282.042h-5.704l-2.269-5.898h-10.381l-2.145,5.898h-5.563l10.116-25.975h5.546
		L1048.052,1282.042z M1038.397,1271.768l-3.58-9.642l-3.509,9.642H1038.397z"/>
	<path fill="#5D5D5D" d="M1067.452,1272.49l5.084,1.614c-0.779,2.834-2.074,4.941-3.889,6.315c-1.812,1.375-4.112,2.066-6.901,2.066
		c-3.448,0-6.282-1.179-8.503-3.538c-2.222-2.353-3.332-5.575-3.332-9.663c0-4.32,1.117-7.682,3.351-10.072
		c2.232-2.391,5.166-3.59,8.806-3.59c3.177,0,5.756,0.939,7.741,2.817c1.182,1.112,2.066,2.707,2.658,4.785l-5.191,1.239
		c-0.307-1.347-0.949-2.407-1.924-3.189c-0.973-0.78-2.157-1.167-3.55-1.167c-1.928,0-3.489,0.691-4.687,2.073
		c-1.199,1.38-1.8,3.618-1.8,6.715c0,3.281,0.59,5.62,1.772,7.016c1.182,1.395,2.716,2.089,4.606,2.089
		c1.394,0,2.591-0.443,3.596-1.327C1066.295,1275.788,1067.014,1274.392,1067.452,1272.49z"/>
	<path fill="#5D5D5D" d="M1100.46,1282.042h-5.704l-2.268-5.898h-10.382l-2.145,5.898h-5.563l10.116-25.975h5.546L1100.46,1282.042z
		 M1090.806,1271.768l-3.579-9.642l-3.509,9.642H1090.806z"/>
	<path fill="#5D5D5D" d="M1103.225,1256.067h9.584c2.162,0,3.811,0.168,4.943,0.495c1.522,0.451,2.828,1.248,3.916,2.395
		c1.086,1.144,1.914,2.546,2.479,4.209c0.569,1.658,0.852,3.705,0.852,6.139c0,2.134-0.265,3.977-0.797,5.526
		c-0.648,1.888-1.576,3.418-2.781,4.59c-0.91,0.883-2.139,1.574-3.686,2.071c-1.157,0.366-2.704,0.55-4.643,0.55h-9.867V1256.067z
		 M1108.468,1260.464v17.202h3.917c1.463,0,2.521-0.084,3.172-0.248c0.85-0.211,1.555-0.576,2.115-1.083
		c0.563-0.507,1.02-1.343,1.373-2.506c0.354-1.163,0.531-2.749,0.531-4.756s-0.177-3.55-0.531-4.624
		c-0.354-1.075-0.85-1.916-1.488-2.519c-0.637-0.6-1.447-1.007-2.426-1.219c-0.733-0.168-2.169-0.248-4.307-0.248H1108.468z"/>
	<path fill="#5D5D5D" d="M1129.445,1282.042v-25.975h19.259v4.396h-14.015v5.755h13.04v4.377h-13.04v7.07h14.51v4.376H1129.445z"/>
	<path fill="#5D5D5D" d="M1153.579,1282.042v-25.975h7.847l4.712,17.718l4.66-17.718h7.867v25.975h-4.872v-20.447l-5.156,20.447
		h-5.049l-5.138-20.447v20.447H1153.579z"/>
	<path fill="#5D5D5D" d="M1190.695,1282.042v-10.931l-9.515-15.044h6.148l6.111,10.275l5.989-10.275h6.041l-9.548,15.08v10.895
		H1190.695z"/>
	<path fill="#5D5D5D" d="M1023.567,1312.754c0-2.646,0.395-4.864,1.187-6.658c0.592-1.323,1.397-2.51,2.418-3.562
		c1.021-1.051,2.141-1.83,3.357-2.338c1.619-0.687,3.486-1.031,5.601-1.031c3.826,0,6.888,1.187,9.186,3.562
		c2.296,2.373,3.445,5.675,3.445,9.903c0,4.194-1.139,7.475-3.419,9.845c-2.28,2.366-5.328,3.553-9.143,3.553
		c-3.861,0-6.933-1.178-9.212-3.536C1024.707,1320.136,1023.567,1316.892,1023.567,1312.754z M1028.97,1312.578
		c0,2.942,0.68,5.172,2.039,6.687c1.356,1.52,3.082,2.278,5.172,2.278c2.093,0,3.808-0.751,5.148-2.258
		c1.341-1.506,2.011-3.765,2.011-6.779c0-2.973-0.653-5.195-1.959-6.658c-1.305-1.466-3.037-2.198-5.2-2.198
		c-2.159,0-3.902,0.739-5.226,2.223C1029.632,1307.354,1028.97,1309.589,1028.97,1312.578z"/>
	<path fill="#5D5D5D" d="M1052.891,1325.584v-25.976h17.806v4.396h-12.562v6.148h10.843v4.393h-10.843v11.039H1052.891z"/>
	<path fill="#5D5D5D" d="M1085.116,1325.584v-25.976h5.244v10.224h10.276v-10.224h5.242v25.976h-5.242v-11.359h-10.276v11.359
		H1085.116z"/>
	<path fill="#5D5D5D" d="M1111.143,1325.584v-25.976h5.244v25.976H1111.143z"/>
	<path fill="#5D5D5D" d="M1133.466,1316.031v-4.372h11.306v10.344c-1.1,1.063-2.692,2.002-4.776,2.811
		c-2.085,0.807-4.194,1.214-6.334,1.214c-2.718,0-5.085-0.57-7.104-1.71c-2.021-1.139-3.538-2.77-4.555-4.893
		c-1.015-2.118-1.523-4.424-1.523-6.919c0-2.701,0.568-5.107,1.701-7.21c1.134-2.103,2.794-3.712,4.979-4.836
		c1.665-0.863,3.738-1.295,6.219-1.295c3.225,0,5.743,0.68,7.555,2.03c1.813,1.351,2.98,3.221,3.501,5.607l-5.208,0.976
		c-0.368-1.275-1.056-2.282-2.065-3.021c-1.01-0.74-2.27-1.107-3.782-1.107c-2.293,0-4.113,0.728-5.467,2.178
		c-1.353,1.455-2.028,3.609-2.028,6.468c0,3.081,0.686,5.396,2.055,6.938c1.37,1.538,3.166,2.31,5.386,2.31
		c1.1,0,2.2-0.215,3.305-0.646c1.104-0.433,2.053-0.952,2.845-1.567v-3.298H1133.466z"/>
	<path fill="#5D5D5D" d="M1149.625,1325.584v-25.976h5.244v10.224h10.275v-10.224h5.244v25.976h-5.244v-11.359h-10.275v11.359
		H1149.625z"/>
	<path fill="#5D5D5D" d="M1175.813,1325.584v-25.976h19.259v4.396h-14.016v5.757h13.041v4.376h-13.041v7.071h14.512v4.376H1175.813z
		"/>
	<path fill="#5D5D5D" d="M1200.031,1325.584v-25.976h11.037c2.775,0,4.792,0.236,6.052,0.699c1.257,0.469,2.264,1.3,3.02,2.49
		c0.757,1.195,1.135,2.559,1.135,4.094c0,1.95-0.572,3.557-1.72,4.827c-1.146,1.271-2.858,2.07-5.137,2.402
		c1.133,0.66,2.069,1.387,2.808,2.178c0.737,0.792,1.733,2.198,2.985,4.218l3.172,5.067h-6.273l-3.79-5.651
		c-1.348-2.021-2.27-3.293-2.765-3.821c-0.495-0.523-1.021-0.883-1.577-1.079c-0.554-0.195-1.434-0.291-2.64-0.291h-1.063v10.843
		H1200.031z M1205.275,1310.596h3.881c2.516,0,4.087-0.107,4.713-0.319c0.624-0.212,1.115-0.58,1.47-1.1
		c0.354-0.519,0.532-1.171,0.532-1.949c0-0.872-0.233-1.579-0.7-2.115c-0.467-0.539-1.125-0.88-1.976-1.019
		c-0.426-0.06-1.701-0.09-3.827-0.09h-4.093V1310.596z"/>
	<path fill="#5D5D5D" d="M1236.299,1325.584v-25.976h19.26v4.396h-14.016v5.757h13.039v4.376h-13.039v7.071h14.511v4.376H1236.299z"
		/>
	<path fill="#5D5D5D" d="M1260.481,1299.608h9.584c2.163,0,3.812,0.168,4.944,0.495c1.523,0.452,2.828,1.248,3.915,2.396
		c1.087,1.143,1.915,2.546,2.479,4.208c0.569,1.659,0.852,3.705,0.852,6.139c0,2.136-0.266,3.979-0.797,5.528
		c-0.648,1.886-1.576,3.417-2.781,4.589c-0.91,0.883-2.138,1.575-3.686,2.069c-1.157,0.367-2.703,0.552-4.642,0.552h-9.869V1299.608
		z M1265.726,1304.004v17.204h3.917c1.462,0,2.52-0.084,3.172-0.248c0.849-0.212,1.554-0.576,2.116-1.083
		c0.561-0.508,1.019-1.344,1.372-2.506c0.354-1.163,0.532-2.751,0.532-4.757c0-2.007-0.179-3.549-0.532-4.624
		s-0.85-1.914-1.489-2.519c-0.636-0.6-1.445-1.007-2.425-1.219c-0.734-0.168-2.169-0.249-4.307-0.249H1265.726z"/>
	<path fill="#5D5D5D" d="M1286.669,1299.608h5.243v14.069c0,2.229,0.066,3.677,0.196,4.34c0.224,1.063,0.76,1.915,1.603,2.559
		c0.846,0.647,2.001,0.967,3.467,0.967c1.486,0,2.609-0.303,3.364-0.911c0.755-0.607,1.212-1.354,1.364-2.241
		c0.152-0.888,0.23-2.359,0.23-4.414v-14.368h5.244v13.645c0,3.119-0.142,5.32-0.426,6.607c-0.282,1.287-0.806,2.375-1.566,3.261
		c-0.763,0.884-1.781,1.592-3.059,2.115c-1.273,0.528-2.94,0.791-4.996,0.791c-2.479,0-4.36-0.287-5.642-0.859
		c-1.282-0.575-2.294-1.318-3.039-2.233c-0.743-0.915-1.232-1.875-1.47-2.879c-0.343-1.49-0.515-3.684-0.515-6.59V1299.608z"/>
	<path fill="#5D5D5D" d="M1329.527,1316.031l5.084,1.614c-0.779,2.835-2.074,4.941-3.89,6.316c-1.813,1.374-4.112,2.065-6.899,2.065
		c-3.451,0-6.283-1.178-8.504-3.536c-2.224-2.355-3.332-5.576-3.332-9.665c0-4.321,1.117-7.683,3.351-10.072
		c2.231-2.39,5.166-3.589,8.805-3.589c3.177,0,5.757,0.938,7.741,2.818c1.181,1.109,2.066,2.704,2.659,4.784l-5.193,1.238
		c-0.306-1.348-0.946-2.406-1.922-3.188c-0.973-0.779-2.158-1.168-3.552-1.168c-1.926,0-3.486,0.692-4.687,2.074
		c-1.199,1.379-1.798,3.618-1.798,6.714c0,3.282,0.59,5.62,1.772,7.015c1.181,1.396,2.716,2.091,4.606,2.091
		c1.393,0,2.592-0.442,3.596-1.326C1328.369,1319.329,1329.09,1317.935,1329.527,1316.031z"/>
	<path fill="#5D5D5D" d="M1362.534,1325.584h-5.704l-2.269-5.899h-10.382l-2.145,5.899h-5.563l10.116-25.976h5.545
		L1362.534,1325.584z M1352.878,1315.308l-3.579-9.639l-3.509,9.639H1352.878z"/>
	<path fill="#5D5D5D" d="M1368.471,1325.584v-21.58h-7.708v-4.396h20.642v4.396h-7.689v21.58H1368.471z"/>
	<path fill="#5D5D5D" d="M1384.628,1325.584v-25.976h5.244v25.976H1384.628z"/>
	<path fill="#5D5D5D" d="M1393.807,1312.754c0-2.646,0.396-4.864,1.187-6.658c0.593-1.323,1.396-2.51,2.419-3.562
		c1.021-1.051,2.14-1.83,3.357-2.338c1.618-0.687,3.485-1.031,5.599-1.031c3.827,0,6.889,1.187,9.187,3.562
		c2.297,2.373,3.446,5.675,3.446,9.903c0,4.194-1.14,7.475-3.42,9.845c-2.279,2.366-5.328,3.553-9.144,3.553
		c-3.859,0-6.932-1.178-9.212-3.536C1394.945,1320.136,1393.807,1316.892,1393.807,1312.754z M1399.21,1312.578
		c0,2.942,0.68,5.172,2.039,6.687c1.356,1.52,3.08,2.278,5.171,2.278c2.092,0,3.808-0.751,5.147-2.258
		c1.342-1.506,2.011-3.765,2.011-6.779c0-2.973-0.652-5.195-1.958-6.658c-1.306-1.466-3.038-2.198-5.2-2.198
		c-2.16,0-3.902,0.739-5.226,2.223C1399.871,1307.354,1399.21,1309.589,1399.21,1312.578z"/>
	<path fill="#5D5D5D" d="M1423.147,1325.584v-25.976h5.102l10.63,17.347v-17.347h4.871v25.976h-5.261l-10.47-16.938v16.938H1423.147
		z"/>
</g>
</svg>
